<svg xmlns="http://www.w3.org/2000/svg" xmlns:xlink="http://www.w3.org/1999/xlink" width="649.675" height="226.13" data-name="Layer 1" viewBox="0 0 649.675 226.13"><path id="bcc0edba-f0dd-423b-bdfc-f2fa10ec70b3-360" fill="#3f3d56" d="M363.08335,336.9351a3.78766,3.78766,0,0,0,0,7.57532H439.9178a3.78766,3.78766,0,1,0,0-7.57532Z" data-name="Path 680" transform="translate(-275.16231 -336.9351)"/><path id="fa56b25f-6ad1-4bb0-b587-f288aecf2229-361" fill="#3f3d56" d="M363.08335,359.25074a3.78767,3.78767,0,0,0,0,7.57533H439.9178a3.78767,3.78767,0,0,0,0-7.57533Z" data-name="Path 681" transform="translate(-275.16231 -336.9351)"/><path id="b413f49f-a7ee-4528-83fd-849b3d17d98f-362" fill="#e4e4e4" d="M401.50117,430.02472a23.84091,23.84091,0,1,1,23.84091-23.842h0A23.86874,23.86874,0,0,1,401.50117,430.02472Z" data-name="Path 682" transform="translate(-275.16231 -336.9351)"/><path id="ba255611-006f-40c2-b981-3cbda4cfa311-363" fill="#3f3d56" d="M760.08335,336.9351a3.78766,3.78766,0,1,0,0,7.57532H836.9178a3.78766,3.78766,0,0,0,0-7.57532Z" data-name="Path 680" transform="translate(-275.16231 -336.9351)"/><path id="f7616677-88a5-4e4e-be2c-5696cf4c3e42-364" fill="#3f3d56" d="M760.08335,359.25074a3.78767,3.78767,0,0,0,0,7.57533H836.9178a3.78767,3.78767,0,0,0,0-7.57533Z" data-name="Path 681" transform="translate(-275.16231 -336.9351)"/><path id="b0ec98cc-856e-42d0-b3d1-ea9b3df6bb16-365" fill="#e4e4e4" d="M798.50117,430.02472a23.84091,23.84091,0,1,1,23.84091-23.842h0A23.86874,23.86874,0,0,1,798.50117,430.02472Z" data-name="Path 682" transform="translate(-275.16231 -336.9351)"/><ellipse cx="484.902" cy="475.492" fill="#2f2e41" rx="7.195" ry="22.919" transform="translate(-427.67489 372.91709) rotate(-64.62574)"/><ellipse cx="585.287" cy="504.72" fill="#2f2e41" rx="7.195" ry="22.919" transform="translate(-462.64755 156.53075) rotate(-39.93837)"/><circle cx="261.37" cy="159.826" r="45.839" fill="#2f2e41"/><rect width="13.926" height="24.95" x="266.846" y="195.801" fill="#2f2e41"/><rect width="13.926" height="24.95" x="238.994" y="195.801" fill="#2f2e41"/><ellipse cx="269.167" cy="221.041" fill="#2f2e41" rx="11.605" ry="4.352"/><ellipse cx="241.315" cy="220.461" fill="#2f2e41" rx="11.605" ry="4.352"/><path fill="#f06449" d="M522.13878,439.14059c4.093-16.48357,22.16034-26.18381,40.35452-21.66607s29.6254,21.54274,25.53236,38.02632-17.67239,16.53678-35.86657,12.019S518.04574,455.6242,522.13878,439.14059Z" transform="translate(-275.16231 -336.9351)"/><circle cx="254.517" cy="150.154" r="15.283" fill="#fff"/><circle cx="248.235" cy="144.676" r="5.094" fill="#3f3d56"/><path fill="#fff" d="M539.26587,518.92927a10.18842,10.18842,0,0,1-20.04736,3.64948h0l-.00358-.01969c-1.00237-5.5369,3.27861-7.49624,8.81551-8.49855S538.26356,513.39243,539.26587,518.92927Z" transform="translate(-275.16231 -336.9351)"/><ellipse cx="715.098" cy="475.492" fill="#2f2e41" rx="22.919" ry="7.195" transform="translate(-409.9374 15.37692) rotate(-25.37426)"/><ellipse cx="614.713" cy="504.72" fill="#2f2e41" rx="22.919" ry="7.195" transform="translate(-442.05925 315.09586) rotate(-50.06163)"/><circle cx="388.306" cy="159.826" r="45.839" fill="#2f2e41"/><rect width="13.926" height="24.95" x="368.904" y="195.801" fill="#2f2e41"/><rect width="13.926" height="24.95" x="396.755" y="195.801" fill="#2f2e41"/><ellipse cx="380.509" cy="221.041" fill="#2f2e41" rx="11.605" ry="4.352"/><ellipse cx="408.36" cy="220.461" fill="#2f2e41" rx="11.605" ry="4.352"/><path fill="#f06449" d="M677.86122,439.14059c-4.093-16.48357-22.16034-26.18381-40.35452-21.66607s-29.6254,21.54274-25.53236,38.02632,17.67239,16.53678,35.86657,12.019S681.95426,455.6242,677.86122,439.14059Z" transform="translate(-275.16231 -336.9351)"/><circle cx="395.159" cy="150.154" r="15.283" fill="#fff"/><circle cx="401.44" cy="144.676" r="5.094" fill="#3f3d56"/><path fill="#fff" d="M660.73413,518.92927a10.18842,10.18842,0,0,0,20.04736,3.64948h0l.00358-.01969c1.00237-5.5369-3.27861-7.49624-8.81551-8.49855S661.73644,513.39243,660.73413,518.92927Z" transform="translate(-275.16231 -336.9351)"/><path fill="#3f3d56" d="M923.647,563.0649H276.353a1.19069,1.19069,0,0,1,0-2.38137H923.647a1.19068,1.19068,0,0,1,0,2.38137Z" transform="translate(-275.16231 -336.9351)"/></svg>