<?xml version="1.0" encoding="utf-8"?>
<!-- Generator: Adobe Illustrator 26.2.1, SVG Export Plug-In . SVG Version: 6.00 Build 0)  -->
<svg version="1.1" id="Calque_1" xmlns="http://www.w3.org/2000/svg" xmlns:xlink="http://www.w3.org/1999/xlink" x="0px" y="0px"
	 viewBox="0 0 500 500" style="enable-background:new 0 0 500 500;" xml:space="preserve">
<style type="text/css">
	.st0{fill:#AE2CF1;}
	.st1{opacity:0.7;fill:#FFFFFF;enable-background:new    ;}
	.st2{fill:#263238;}
	.st3{fill:#B2B2B2;}
	.st4{fill:#AE2CF1;stroke:#263238;stroke-miterlimit:10;}
	.st5{opacity:0.3;}
	.st6{fill:#DEDEDE;}
	.st7{fill:#FFFFFF;}
	.st8{fill:#ABABAB;}
</style>
<g id="freepik--background-simple--inject-25">
	<path class="st0" d="M451.7,117c-1.7-2.8-3.4-5.5-5.2-8.2c-24.3-35.7-64.7-60.1-104-71.2c-17.1-4.7-34.8-7.4-52.5-8
		c-115.7-4.2-158.2,91.2-195.4,115.8S0,211.9,7.2,300.1c5.4,67.1,43.6,131.2,113.3,160.4c7.9,3.3,16,6.1,24.2,8.4
		c16.7,4.5,33.8,7.2,51.1,7.9c52.7,2.4,95.5-10.4,137.4-42.3c9.7-7.4,19.4-15.8,32-16.8c9.2-0.7,17.9,2.6,8.3,11.5
		c-11.3,10.4,1.7,30.9,30.4,16.7c47.8-23.8,67.5-75.1,76.7-127.3C491.9,254.5,486.4,174.8,451.7,117z"/>
	<path class="st1" d="M451.7,117c-1.7-2.8-3.4-5.5-5.2-8.2c-24.3-35.7-64.7-60.1-104-71.2c-17.1-4.7-34.8-7.4-52.5-8
		c-115.7-4.2-158.2,91.2-195.4,115.8S0,211.9,7.2,300.1c5.4,67.1,43.6,131.2,113.3,160.4c7.9,3.3,16,6.1,24.2,8.4
		c16.7,4.5,33.8,7.2,51.1,7.9c52.7,2.4,95.5-10.4,137.4-42.3c9.7-7.4,19.4-15.8,32-16.8c9.2-0.7,17.9,2.6,8.3,11.5
		c-11.3,10.4,1.7,30.9,30.4,16.7c47.8-23.8,67.5-75.1,76.7-127.3C491.9,254.5,486.4,174.8,451.7,117z"/>
</g>
<g id="freepik--Space--inject-25">
	<path class="st2" d="M206.2,460.5c-3.7,0-7.5-0.1-11.4-0.3c-16.1-0.6-32-3.1-47.5-7.3c-7.5-2.1-14.8-4.6-22-7.6
		C66.6,420.8,28.4,366.5,23,300c-2.8-34.2,4.8-63,23.2-88c15.5-21.1,36.2-36.3,56.2-49.5c13.1-8.6,24.7-21.7,38.2-36.8
		C172.4,90.2,211.9,46,284.1,46c2.2,0,4.5,0,6.7,0.1c16.4,0.5,32.8,3,48.6,7.4c39.1,11,74.3,34.9,93.9,63.8c1.6,2.3,3.1,4.8,4.7,7.3
		c34.7,57.7,36.6,137.1,26.8,192.2c-9.7,54.6-27.6,89.4-56,108.2c-0.3-2.1-0.9-4.1-1.6-6c-5-12.8-18-20.4-34.7-20.4
		c-1.4,0-2.8,0-4.2,0.2c-19.8,1.4-34.2,12.5-44.6,20.7l-2.7,2C285.7,448.5,250.2,460.5,206.2,460.5z"/>
</g>
<g id="freepik--Stars--inject-25">
	<circle class="st3" cx="362.5" cy="100.9" r="4.7"/>
	<circle class="st3" cx="441.1" cy="180.2" r="4.7"/>
	<circle class="st3" cx="116.8" cy="402.6" r="4.7"/>
	<circle class="st3" cx="402.5" cy="398.5" r="4.7"/>
	<path class="st3" d="M248.5,60c0,1.5-1.2,2.7-2.7,2.7c-1.5,0-2.7-1.2-2.7-2.7c0-1.5,1.2-2.7,2.7-2.7l0,0
		C247.3,57.3,248.5,58.5,248.5,60z"/>
	<circle class="st3" cx="62" cy="221.8" r="4.7"/>
	<circle class="st3" cx="400.2" cy="104.4" r="2.3"/>
	<circle class="st0" cx="86.9" cy="371.3" r="2.3"/>
	<circle class="st0" cx="430.6" cy="352.1" r="2.3"/>
	<path class="st0" d="M216.2,416.3c0,1.3-1,2.3-2.3,2.3c-1.3,0-2.3-1-2.3-2.3s1-2.3,2.3-2.3c0,0,0,0,0,0
		C215.2,414,216.2,415,216.2,416.3z"/>
	<path class="st3" d="M97,334.2c0,1.3-1,2.3-2.3,2.3s-2.3-1-2.3-2.3c0-1.3,1-2.3,2.3-2.3c0,0,0,0,0,0C96,331.8,97,332.9,97,334.2z"
		/>
	<path class="st3" d="M193.4,445.8c0,1.3-1,2.3-2.3,2.3s-2.3-1-2.3-2.3c0-1.3,1-2.3,2.3-2.3h0C192.3,443.4,193.4,444.5,193.4,445.8
		C193.4,445.8,193.4,445.8,193.4,445.8z"/>
	<path class="st0" d="M327.4,70.7c0,1.3-1,2.3-2.3,2.3c-1.3,0-2.3-1-2.3-2.3c0-1.3,1-2.3,2.3-2.3l0,0
		C326.4,68.4,327.4,69.4,327.4,70.7z"/>
	<path class="st3" d="M331.4,325.2c0,1.3-1,2.3-2.3,2.3s-2.3-1-2.3-2.3s1-2.3,2.3-2.3h0C330.4,322.9,331.4,323.9,331.4,325.2
		C331.4,325.2,331.4,325.2,331.4,325.2z"/>
	<path class="st3" d="M438.3,234.7c0,1.3-1,2.3-2.3,2.3c-1.3,0-2.3-1-2.3-2.3c0-1.3,1-2.3,2.3-2.3c0,0,0,0,0,0
		C437.3,232.4,438.3,233.4,438.3,234.7z"/>
	<circle class="st0" cx="57.3" cy="323.9" r="2.3"/>
	<circle class="st3" cx="264.7" cy="429.5" r="2.3"/>
	<circle class="st0" cx="180.3" cy="338.6" r="2.3"/>
	<path class="st0" d="M335.5,150.6c0,1.3-1,2.3-2.3,2.3c-1.3,0-2.3-1-2.3-2.3c0-1.3,1-2.3,2.3-2.3c0,0,0,0,0,0
		C334.5,148.3,335.5,149.3,335.5,150.6C335.5,150.6,335.5,150.6,335.5,150.6z"/>
</g>
<g id="freepik--Text--inject-25">
	<path class="st3" d="M137.7,393.7v-40h14.5v2.9h-10.7v15h8.7v2.8h-8.7v16.5h10.8v2.8L137.7,393.7z"/>
	<path class="st3" d="M157.4,393.7v-40h9c2-0.1,4.1,0.3,5.9,1.2c1.4,0.8,2.5,2,3.1,3.5c0.7,1.7,1,3.6,0.9,5.5c0,1.4-0.2,2.8-0.5,4.2
		c-0.3,1.2-0.9,2.4-1.7,3.4c-0.9,1-2.1,1.6-3.4,1.8l6.1,20.5h-3.7l-5.8-19.7h-6.3v19.7H157.4z M161.1,371.3h5.1
		c1.4,0.1,2.7-0.2,3.9-0.8c0.9-0.6,1.6-1.4,2-2.5c0.4-1.3,0.6-2.7,0.6-4.1c0.1-1.9-0.3-3.9-1.3-5.5c-0.9-1.2-2.6-1.8-5.1-1.8h-5.2
		L161.1,371.3z"/>
	<path class="st3" d="M182.6,393.7v-40h9c2-0.1,4.1,0.3,5.9,1.2c1.4,0.8,2.5,2,3.1,3.5c0.7,1.7,1,3.6,0.9,5.5c0,1.4-0.2,2.8-0.5,4.2
		c-0.3,1.2-0.9,2.4-1.7,3.4c-0.9,1-2.1,1.6-3.4,1.8l6.1,20.5h-3.6l-5.8-19.7h-6.3v19.7H182.6z M186.4,371.3h5.1
		c1.4,0.1,2.7-0.2,3.9-0.8c0.9-0.6,1.6-1.4,2-2.5c0.4-1.3,0.6-2.7,0.6-4.1c0.1-1.9-0.3-3.9-1.3-5.5c-0.9-1.2-2.6-1.8-5.1-1.8h-5.2
		L186.4,371.3z"/>
	<path class="st3" d="M217.4,394.2c-2.2,0.1-4.3-0.4-6.2-1.5c-1.5-1.1-2.6-2.6-3.2-4.4c-0.6-2.1-1-4.2-0.9-6.4v-16.6
		c0-2.2,0.3-4.3,1-6.4c0.6-1.7,1.7-3.2,3.2-4.2c3.8-2,8.4-2,12.2,0c1.5,1,2.6,2.5,3.2,4.2c0.7,2,1,4.2,0.9,6.4v16.6
		c0,2.2-0.3,4.3-0.9,6.4c-0.5,1.8-1.6,3.3-3.1,4.3C221.8,393.8,219.6,394.3,217.4,394.2z M217.4,391.2c1.4,0.1,2.9-0.3,4.1-1.1
		c1-0.8,1.6-1.8,1.9-3c0.4-1.4,0.5-2.9,0.5-4.4v-18.1c0-1.5-0.2-3-0.5-4.4c-0.3-1.2-1-2.2-1.9-2.9c-2.5-1.3-5.6-1.3-8.1,0
		c-1,0.7-1.6,1.7-1.9,2.9c-0.4,1.4-0.5,2.9-0.5,4.4v18.1c0,1.5,0.1,3,0.5,4.4c0.3,1.2,1,2.2,1.9,3
		C214.5,390.9,216,391.3,217.4,391.2L217.4,391.2z"/>
	<path class="st3" d="M233.9,393.7v-40h9c2-0.1,4.1,0.3,5.9,1.2c1.4,0.8,2.5,2,3.1,3.5c0.7,1.7,1,3.6,0.9,5.5c0,1.4-0.2,2.8-0.5,4.2
		c-0.3,1.2-0.9,2.4-1.7,3.4c-0.9,1-2.1,1.6-3.4,1.8l6.1,20.5h-3.6l-5.8-19.7h-6.3v19.7H233.9z M237.6,371.3h5.1
		c1.4,0.1,2.7-0.2,3.9-0.8c0.9-0.6,1.6-1.4,2-2.5c0.4-1.3,0.6-2.7,0.6-4.1c0.1-1.9-0.3-3.9-1.3-5.5c-0.9-1.2-2.6-1.8-5.1-1.8h-5.2
		L237.6,371.3z"/>
	<path class="st3" d="M269.2,393.7v-40h9.6c2-0.1,3.9,0.4,5.6,1.3c1.4,0.9,2.4,2.2,2.9,3.7c0.6,1.8,0.9,3.7,0.9,5.6
		c0,1.8-0.3,3.5-0.9,5.2c-0.6,1.6-1.6,2.9-3,3.8c-1.6,1-3.6,1.5-5.5,1.4H273v18.9H269.2z M273,372h4.8c1.3,0.1,2.7-0.2,3.9-0.7
		c1-0.5,1.8-1.4,2.2-2.4c0.5-1.5,0.8-3,0.7-4.5c0.1-1.6-0.1-3.2-0.6-4.8c-0.3-1-1.1-1.9-2-2.4c-1.3-0.5-2.7-0.7-4.1-0.7H273V372z"/>
	<path class="st3" d="M288.9,393.7l8.5-40h4l8.5,40h-3.7l-2-10.7h-9.5l-2,10.7H288.9z M295.1,380.3h8.5l-4.3-21.6L295.1,380.3z"/>
	<path class="st3" d="M323.6,394.2c-2.1,0.1-4.2-0.4-5.9-1.6c-1.5-1.1-2.5-2.7-3-4.5c-0.6-2.2-0.9-4.4-0.9-6.7v-15.6
		c0-2.3,0.2-4.5,0.9-6.7c0.5-1.8,1.6-3.3,3.1-4.4c3.7-2,8.1-2.1,11.9-0.2c1.4,0.9,2.5,2.3,3,3.9c0.7,2,1,4.1,0.9,6.3v1.4H330v-1.4
		c0-1.6-0.1-3.2-0.5-4.7c-0.3-1.1-0.9-2.1-1.8-2.8c-1.1-0.7-2.5-1-3.8-0.9c-1.5-0.1-2.9,0.3-4.1,1.2c-1,0.9-1.6,2-1.8,3.3
		c-0.3,1.6-0.4,3.2-0.4,4.7v16.5c0,1.7,0.1,3.4,0.5,5c0.3,1.2,0.9,2.4,1.9,3.2c1.2,0.8,2.6,1.2,4,1.1c2.7,0.3,5.2-1.6,5.7-4.3
		c0.4-1.6,0.6-3.3,0.5-5v-4.7h-5.9v-2.8h9.4v19.3h-2.4l-0.4-4.5c-0.4,1.5-1.3,2.7-2.5,3.7C327,393.9,325.3,394.4,323.6,394.2z"/>
	<path class="st3" d="M340.2,393.7v-40h14.5v2.9H344v15h8.7v2.8H344v16.5h10.8v2.8L340.2,393.7z"/>
</g>
<g id="freepik--Number--inject-25">
	<path class="st4" d="M121.8,338.9v-49.1H62.2v-29.1l52-121.5h39.7v123.5h20.5v27.1h-20.4v49.1H121.8z M90.8,262.7h31.1v-86.8
		L90.8,262.7z M244.4,341.8c-11.7,0-21.3-2.5-29-7.4c-7.6-4.9-13.6-12.1-17.2-20.4c-3.9-8.7-5.8-18.7-5.8-30.1v-88.5
		c0-11.7,1.9-21.9,5.6-30.7c3.4-8.5,9.3-15.6,17-20.6c7.6-4.9,17.5-7.4,29.5-7.4c12,0,21.8,2.5,29.5,7.4c7.7,5,13.6,12.1,17,20.6
		c3.7,8.8,5.5,19,5.5,30.7v88.5c0,11.3-1.9,21.4-5.8,30.1c-3.6,8.4-9.6,15.5-17.2,20.5C265.7,339.4,256,341.8,244.4,341.8
		L244.4,341.8z M244.4,312.5c5.1,0,8.9-1.6,11.3-4.7c2.5-3.3,4.2-7.2,4.9-11.3c0.8-4.3,1.2-8.7,1.2-13.1v-87.5
		c0-4.6-0.4-9.2-1.1-13.7c-0.6-4.2-2.2-8.1-4.8-11.5c-2.5-3.1-6.3-4.7-11.6-4.7c-5.3,0-9.1,1.6-11.6,4.7c-2.5,3.3-4.2,7.3-4.8,11.5
		c-0.7,4.5-1.1,9.1-1.1,13.7v87.5c0,4.4,0.5,8.8,1.4,13.1c0.8,4.1,2.5,8,5.1,11.3C235.8,310.9,239.4,312.5,244.4,312.5L244.4,312.5z
		 M377.7,338.9v-49.1h-59.7v-29.1l52-121.5h39.7v123.5h20.5v27.1h-20.5v49.1L377.7,338.9z M346.7,262.7h31.1v-86.8L346.7,262.7z"/>
</g>
<g id="freepik--Character--inject-25">
	<g class="st5">
		<path d="M320.7,285.1l0.1,0.1c0.2,0.1,0.4,0.3,0.6,0.4l0.2,0.1c0.2,0.1,0.4,0.2,0.5,0.3l0.2,0.1c0.3,0.1,0.5,0.2,0.8,0.3h0.1
			c0.3,0.1,0.5,0.1,0.8,0.1h0.3c0.4,0,0.7,0.1,1.1,0.1l0,0c1.4,0,2.8-0.2,4.1-0.8c0.7-0.3,1.4-0.6,2-1c0.4-0.3,0.9-0.6,1.3-0.9
			c0.2-0.2,0.4-0.3,0.6-0.5c0.4-0.4,0.8-0.7,1.1-1.1c3.3-3.6,5.3-9.3,3.6-16c-0.4-1.7-0.8-3.2-1.3-4.7c-0.7-2.3-1.5-4.6-2.5-6.9
			c-0.2-0.5-0.5-1.1-0.7-1.6c-0.6-1.2-1.2-2.3-1.9-3.4c-0.4-0.7-0.9-1.4-1.4-2c-1.1-1.4-2.3-2.7-3.7-3.7c-0.3-0.2-0.7-0.5-1-0.7
			c-0.1-0.1-0.2-0.1-0.3-0.1l-7.4,17.3V280c0.7,2,1.2,3.8,2.5,5l0,0L320.7,285.1z"/>
		<path d="M296.4,280v-34.3c-1,0-1.9,0.1-2.7,0.1c0.1-5.4-0.5-10.8-1.8-16.1c0-6.6-2.7-12.8-7.5-17.4c-0.5-6.6-4.2-14.4-8.3-19.8
			c0.1,0,0.2,0,0.3,0c1.7-0.2,2.7-2.3,3.4-5.8c0.1-0.5,0.2-0.9,0.2-1.4c1.5-0.9,2.8-2.2,3.7-3.7c0.5-1.1,0.9-2.3,1-3.6
			c1.8-1.1,3.5-2.5,4.9-4.1c1.3-1.6,2.2-3.5,2.5-5.6c-0.4-1.2-0.9-2.5-1.4-3.7c-2.1-5-5.1-9.7-8.8-13.7c-1.1-0.6-2.2-1-3.4-1.3
			c-1.1-0.3-2.2-0.4-3.3-0.5c-6.1-1.2-12.2-1.9-18.4-2c-3-0.1-5.7,0-8.1,0.1c-2.1-0.9-4.3-1.2-6.6-1c-1.4,0.1-2.7,0.5-4,1.1
			c-3.5-0.9-7.2-1.3-10.8-0.9c-0.8,0.1-1.5,0.2-2.2,0.3c0-0.4-0.1-0.8-0.1-1.1c-0.1-0.7-0.2-1.4-0.3-2.2c0.1-1.3,0.1-2.7,0-4
			c-3.5,1.1-6.9,2.7-10,4.6c-7.7,4.9-13.6,12.1-17,20.6c-3.7,8.8-5.6,19-5.6,30.7v8.8c3.6,4.6,7.9,9.8,10.8,11.8l0.6,0.6
			c0.2,3.4,0.8,11.2,2.3,13.8c0,0-1.2,4.1,0.8,6.2c-0.6,4.6-1.4,16.2,3.4,27.6c3.7,8.9,10.1,13.6,16.6,15.1v-83.5
			c0.1-4.6,0.5-9.2,1.3-13.7c0.6-4.2,2.3-8.1,4.8-11.5c2.5-3.1,6.3-4.7,11.6-4.7s9.1,1.6,11.6,4.7c2.6,3.3,4.2,7.3,4.8,11.5
			c0.7,4.5,1.1,9.1,1.1,13.7v87.5c0,1.5-0.1,3-0.2,4.5c0,0.3,0.1,0.5,0.2,0.8l0,0c0.1,0.3,0.2,0.5,0.3,0.8c0,0.1,0,0.1,0.1,0.1
			c0.1,0.2,0.2,0.4,0.3,0.5l0.1,0.1c0.1,0.2,0.3,0.3,0.4,0.5l0,0c0.2,0.1,0.3,0.3,0.5,0.4l0.1,0.1l0.5,0.2h0.1
			c0.2,0.1,0.4,0.1,0.7,0.2h0.2c0.2,0.1,0.4,0.1,0.6,0.2l0.2,0.1l0.8,0.2c3.6,0.8,9.8-4.1,11.4-9c0.3-1.1,0.6-2.2,0.7-3.3l0.6-0.1
			C285.1,280.8,290.8,280.9,296.4,280z M273.4,189.3L273.4,189.3l0.1-0.4C273.4,189,273.4,189.2,273.4,189.3L273.4,189.3z
			 M273.7,186.8c0.1-0.5,0.1-1,0.2-1.5l0,0C273.9,185.8,273.8,186.3,273.7,186.8L273.7,186.8z"/>
		<path d="M153.9,207.3c-1.3,3.2-2.4,6.1-3,7.8c-1.8,5.2-3.8,11-3.7,14.3s2.1,7.6,3.7,7.8s2.8-0.9,3-3.2V207.3z"/>
	</g>
	<path class="st6" d="M269.1,217.2c0.6,5,0.9,10,0.9,15.1c-0.1,7.6,1.7,7.8,5.4,8.6s9.8-4.1,11.4-9s1.4-14.5,1.4-14.5L269.1,217.2z"
		/>
	<path class="st2" d="M276.3,241.5c-0.3,0-0.7,0-1-0.1l-0.3-0.1c-3.8-0.9-5.5-1.6-5.4-9c0-5-0.3-10-0.9-15l-0.1-0.6l20.2,0.2v0.5
		c0,0.4,0.1,9.7-1.5,14.6S280.2,241.5,276.3,241.5z M269.7,217.7c0.6,4.8,0.9,9.7,0.9,14.6c-0.1,7,1.3,7.3,4.6,8l0.3,0.1
		c3.4,0.8,9.3-4,10.8-8.7c1.3-4.2,1.4-11.8,1.4-13.8L269.7,217.7z"/>
	<path class="st6" d="M285.7,226.3c-0.2,3.4-1.2,8.8-6.2,11.4c-2.8,1.5-6.3,1.4-9-0.4c0.7,2.6,2.4,2.9,4.9,3.5
		c3.6,0.8,9.8-4.1,11.4-9s1.4-14.5,1.4-14.5H286C285.9,219.9,285.8,224.1,285.7,226.3z"/>
	<path class="st2" d="M276.3,241.5c-0.3,0-0.7,0-1-0.1l-0.3-0.1c-2.3-0.5-4.1-0.9-4.9-3.8l-0.4-1.3l1.1,0.7c2.5,1.6,5.8,1.8,8.5,0.4
		c4.6-2.4,5.7-7.3,5.9-11l0,0c0.1-2.4,0.3-7.1,0.3-8.9v-0.5h3.2v0.5c0,0.4,0.1,9.7-1.5,14.6S280.2,241.5,276.3,241.5z M271.5,238.5
		c0.7,1.1,1.9,1.4,3.6,1.8l0.3,0.1c3.4,0.8,9.3-4,10.8-8.7c1.3-4.2,1.4-11.8,1.4-13.8h-1.2c-0.1,2.1-0.2,6.2-0.3,8.5
		c-0.2,3.9-1.5,9.2-6.4,11.9C277.2,239.6,274.2,239.7,271.5,238.5L271.5,238.5z"/>
	<path class="st6" d="M251.9,224.4c4.8-0.3,9.6-1.4,14.1-3.1c8.1-3,17.3-9.8,15.3-16.5s-12.6-8.5-16.8-8.1c-3,0.4-6,0.9-9,1.7
		C255.6,198.4,256.6,217.1,251.9,224.4z"/>
	<path class="st2" d="M251,224.9l0.5-0.8c4.6-7,3.6-25.5,3.6-25.7V198l0.4-0.1c3-0.7,6-1.3,9.1-1.7c4.2-0.4,15.2,1.3,17.3,8.4
		c2,6.6-6.6,13.8-15.6,17.1c-4.6,1.8-9.4,2.8-14.3,3.1L251,224.9z M256.2,198.7c0.1,2.8,0.5,17.9-3.3,25.1c4.5-0.4,8.9-1.4,13.1-3
		c8.6-3.2,16.8-9.8,15-15.9c-1.9-6.4-12.4-8.1-16.2-7.7C261.8,197.5,258.9,198.1,256.2,198.7L256.2,198.7z"/>
	<path class="st0" d="M248,227.1c3.4-0.8,6.4-2.7,8.6-5.4c3.2-4.2,4.5-11.1,2.7-15.7S248,227.1,248,227.1z"/>
	<path class="st2" d="M247.2,227.8l0.3-0.9c1.9-5.1,8.4-21.9,11.2-21.9l0,0c0.3,0,0.8,0.1,1,0.9c1.8,4.7,0.6,11.8-2.8,16.1
		c-2.3,2.8-5.4,4.7-8.9,5.5L247.2,227.8z M258.7,206c-1.4,0-6.1,10.4-9.9,20.3c2.9-0.9,5.5-2.6,7.4-4.9c3.1-4.1,4.3-10.8,2.6-15.2
		C258.8,206.1,258.7,206.1,258.7,206z"/>
	<path class="st6" d="M215.8,183.2c0,0-3.1,15,3,29.7s19.6,18.2,29.1,14.1s11.7-17.3,11.8-26.2s-0.2-12.9-0.2-12.9
		S227.8,191.1,215.8,183.2z"/>
	<path class="st2" d="M240.2,229.1c-2.8,0-5.5-0.5-8.1-1.6c-4.2-1.7-10-5.6-13.8-14.4c-6.2-14.7-3.1-29.8-3.1-30l0.1-0.7l0.6,0.4
		c11.7,7.7,43.1,4.7,43.5,4.7l0.5-0.1v0.5c0,0,0.3,4.1,0.2,12.9c-0.1,6.5-1.4,22.1-12.1,26.6C245.6,228.6,242.9,229.1,240.2,229.1z
		 M216.2,184.1c-0.5,3.1-2.1,16.1,3.1,28.7c3.6,8.5,9.2,12.2,13.2,13.9c4.9,2,10.3,2,15.2,0c10.2-4.3,11.4-19.4,11.5-25.7
		c0.1-7-0.1-11-0.1-12.3C254.9,188.9,227.9,191,216.2,184.1L216.2,184.1z"/>
	<path class="st0" d="M214.7,179.1c0,0-1.4,4.9,1.4,6.7s17.6,10.4,35,7.1c9.8-1.9,7.6-4.7,7.4-6.3S214.7,179.1,214.7,179.1z"/>
	<path class="st2" d="M243.1,194.2c-9.6-0.2-19.1-2.9-27.3-8c-3.1-2-1.7-7.1-1.6-7.3l0.1-0.4l0.4,0.1c0.1,0,11.1,1.5,21.9,3.2
		c22.3,3.5,22.4,4.2,22.4,4.8c0,0.2,0.1,0.4,0.1,0.6c0.3,1,0.2,2-0.3,2.9c-1,1.5-3.4,2.6-7.7,3.4C248.6,194,245.9,194.2,243.1,194.2
		z M215.1,179.7c-0.2,1.2-0.7,4.4,1.3,5.8c2.8,1.8,17.4,10.3,34.7,7.1c3.9-0.7,6.3-1.7,7.1-2.9c0.3-0.7,0.4-1.4,0.1-2.1
		c-0.1-0.2-0.1-0.4-0.1-0.5C256,185.7,230.9,181.9,215.1,179.7z"/>
	<path class="st7" d="M212.3,163.7c0,0,0.4,12.1,2.4,15.5s27.8,13.4,40.9,10.6s34.4-14.5,37.1-23.1s-4.2-22.1-10.5-28.6
		s-9.1-7.8-9.1-7.8S257.4,151,238,157.9S212.3,163.7,212.3,163.7z"/>
	<path class="st2" d="M250.2,190.7c-13.9,0-34.1-8.1-36-11.3c-2-3.4-2.4-15.2-2.4-15.7v-0.6l0.6,0.1c0.1,0,6.5,0.9,25.4-5.8
		s34.6-27.3,34.7-27.5l0.2-0.3l0.4,0.2c0.1,0.1,3,1.4,9.3,7.9s13.4,20,10.6,29.1s-24.6,20.7-37.4,23.4
		C253.9,190.5,252.1,190.7,250.2,190.7z M212.8,164.2c0.1,2.4,0.7,11.9,2.3,14.7s27.1,13.2,40.3,10.3c13.6-3,34.2-14.7,36.7-22.8
		c2.6-8.6-4.5-22.1-10.4-28.1c-5-5.1-7.7-6.9-8.6-7.5c-2.2,2.8-17,21.1-34.9,27.5C221.9,164.1,214.8,164.3,212.8,164.2z"/>
	<path class="st7" d="M315.2,194.3c0,0,13.7-5.4,19.2-2.1s9.7,11,12.5,22.8s-5.5,20.6-12.8,20.3s-6-5-8.8-9.8s-6.3-7.6-6.5-8.1
		S322,201.7,315.2,194.3z"/>
	<path class="st2" d="M334.5,235.9h-0.4c-5.5-0.2-6.5-3-7.6-6.1c-0.4-1.4-1-2.7-1.7-3.9c-1.6-2.6-3.5-5-5.6-7.1
		c-0.4-0.3-0.7-0.6-0.9-1c-0.1-0.2-0.1-0.4,0.1-1.6c0.5-3.8,2-15.4-3.6-21.4l-0.5-0.5l0.7-0.3c0.6-0.2,14-5.4,19.6-2
		s9.9,11.1,12.8,23.1c1.5,5.5,0.3,11.3-3.2,15.8C341.9,233.8,338.3,235.7,334.5,235.9z M319.3,217.3c0.1,0.1,0.4,0.4,0.7,0.7
		c2.2,2.2,4.2,4.6,5.8,7.3c0.7,1.3,1.3,2.7,1.8,4.1c1,3.1,1.8,5.3,6.7,5.5c3.3,0.1,6.8-1.6,9.3-4.8c3.3-4.2,4.4-9.8,3-14.9
		c-2.9-11.7-7-19.3-12.3-22.5c-4.5-2.7-15.3,0.9-18.1,1.9c5.3,6.5,3.8,17.8,3.3,21.6C319.3,216.6,319.3,217.1,319.3,217.3z"/>
	<path class="st7" d="M334.4,192.3c-1.8-0.9-3.8-1.2-5.7-1c2.8,2.1,8.3,7.1,11.9,16.6c5,13.2,2.7,20.2,0.2,22.8s-7.9,3.5-10.2,3.2
		l-1.3-0.1c1,1,2.5,1.6,5,1.7c7.3,0.3,15.7-8.4,12.8-20.3S339.9,195.6,334.4,192.3z"/>
	<path class="st2" d="M334.5,235.9h-0.4c-2.5-0.1-4.1-0.7-5.3-1.8l-1-1l2.8,0.3c2.1,0.2,7.4-0.6,9.8-3.1c2.8-2.9,4.2-10.2-0.3-22.2
		c-3.5-9.4-8.8-14.3-11.7-16.4l-1.1-0.8l1.4-0.1c2.1-0.2,4.1,0.2,6,1.1c5.6,3.3,9.9,11.1,12.8,23.1c1.5,5.5,0.3,11.3-3.2,15.8
		C341.9,233.8,338.3,235.7,334.5,235.9z M331.2,234.4c0.9,0.3,1.9,0.5,2.9,0.5c3.3,0.1,6.8-1.6,9.3-4.8c3.3-4.2,4.4-9.8,3-14.9
		c-2.9-11.7-7-19.3-12.3-22.5l0,0c-1.2-0.7-2.6-1-4-1c4.9,4.3,8.7,9.8,10.9,16c5.9,15.7,1.5,21.8,0.1,23.3
		C338.6,233.4,333.9,234.4,331.2,234.4L331.2,234.4z"/>
	<path class="st7" d="M286.2,228c0,0,12.9,3.7,25-1.1s19.1-12.8,16.4-22.6s-7.6-10.1-18.6-10s-13.1,1.1-13.1,1.1
		S295.5,223,286.2,228z"/>
	<path class="st2" d="M297.4,229.9c-3.8,0-7.6-0.4-11.3-1.4l-1.2-0.3l1.1-0.6c9-4.9,9.4-31.9,9.4-32.2v-0.3l0.3-0.1
		c0.1,0,2.4-1,13.3-1.1s16.3,0.3,19.1,10.4c2.6,9.4-3.5,17.9-16.7,23.2C306.9,229.1,302.2,229.9,297.4,229.9z M287.5,227.8
		c3.4,0.8,13.8,2.5,23.5-1.4c12.7-5.1,18.6-13.1,16.1-22c-2.6-9.4-7.1-9.8-18.1-9.6c-8.7,0.1-11.8,0.7-12.6,0.9
		C296.3,199,295.5,221.7,287.5,227.8z"/>
	
		<ellipse transform="matrix(9.393454e-02 -0.9956 0.9956 9.393454e-02 73.8884 439.5327)" class="st0" cx="278.4" cy="179.2" rx="24" ry="22.1"/>
	<path class="st2" d="M278.1,203.6c-0.7,0-1.3,0-2-0.1c-12.4-1.2-21.5-13.1-20.2-26.5c1.3-13.4,12.4-23.4,24.8-22.2
		c6.1,0.6,11.7,3.7,15.3,8.7c3.9,5.1,5.6,11.5,5,17.8C299.8,194,289.7,203.6,278.1,203.6z M278.7,155.7c-11.1,0-20.7,9.2-21.8,21.4
		c-1.2,12.9,7.5,24.3,19.3,25.4s22.5-8.4,23.7-21.3l0,0c0.6-6.1-1.1-12.2-4.8-17.1c-3.5-4.7-8.8-7.7-14.6-8.3
		C280,155.8,279.4,155.7,278.7,155.7L278.7,155.7z"/>
	
		<ellipse transform="matrix(9.393454e-02 -0.9956 0.9956 9.393454e-02 52.2308 471.4909)" class="st0" cx="285.2" cy="207.1" rx="21.7" ry="20.1"/>
	<path class="st2" d="M284.9,229.3c-0.6,0-1.2,0-1.8-0.1c-5.5-0.5-10.6-3.4-13.9-7.9c-3.5-4.6-5.1-10.4-4.5-16.2
		c1.1-12.2,11.3-21.3,22.6-20.2s19.5,11.9,18.4,24.1l0,0C304.5,220.5,295.4,229.3,284.9,229.3z M285.5,185.8
		c-10,0-18.7,8.4-19.8,19.4c-0.6,5.5,1,11.1,4.3,15.5c3.1,4.2,7.9,7,13.2,7.5c10.7,1,20.4-7.6,21.5-19.3s-6.7-22-17.5-23
		C286.6,185.9,286,185.8,285.5,185.8z"/>
	<path class="st7" d="M302.4,194.7c0,0,0.9-19.4-8.5-30s-30.9-1.9-34.5,14s4,39.8,13.8,46s18.2,0.1,23.8-8.4
		S302.4,194.7,302.4,194.7z"/>
	<path class="st2" d="M281.2,227.8c-3-0.1-5.9-1-8.3-2.6c-10.2-6.4-17.6-30.8-14-46.5c2.2-10,10.9-16.4,18.5-18.4
		c6.8-1.8,13-0.3,16.9,4.1c9.4,10.6,8.7,29.3,8.7,30.3c0,0.7,0.1,13.4-5.5,21.9C294.3,221.3,288.7,227.8,281.2,227.8z M282.7,160.5
		c-1.7,0-3.5,0.2-5.2,0.7c-7.3,1.9-15.6,8.1-17.7,17.6c-3.5,15.4,3.7,39.2,13.6,45.5c10.9,6.9,19.2-2.2,23.1-8.3
		c5.5-8.3,5.3-21.2,5.3-21.3l0,0c0-0.2,0.8-19.3-8.4-29.6C290.7,162.1,286.8,160.4,282.7,160.5L282.7,160.5z"/>
	<path class="st6" d="M168.9,140.5c0,0-7.5,18.1-9.3,23.3s-3.8,11-3.7,14.3s2.1,7.6,3.7,7.8s2.8-0.9,3-3.2s0.1-3.2,1.3-4.5
		c1.6-1.5,3.3-2.8,5.2-3.9c0.5-0.2,0.8,1.5-0.3,3.4s-3.4,3.6-2,5.5s4.4-0.3,6-1.9c1.9-2,3.2-4.5,3.9-7.1c0.6-2.8,0.3-8.7,0.3-8.7
		l13.2-12.5C190.1,152.9,172.7,150.8,168.9,140.5z"/>
	<path class="st2" d="M159.8,186.4h-0.3c-2.1-0.2-4.1-4.9-4.2-8.2s1.8-9,3.8-14.5c1.8-5.1,9.3-23.1,9.3-23.3l0.5-1.2l0.4,1.2
		c3.7,9.9,20.8,12.1,21,12.1l1.1,0.1l-13.8,13.1c0.1,1.1,0.2,6-0.4,8.6c-0.7,2.8-2.1,5.3-4,7.4c-0.9,0.9-3.1,2.9-5.1,2.8
		c-0.7,0-1.3-0.4-1.7-0.9c-1.3-1.7-0.1-3.3,0.9-4.7c0.4-0.4,0.7-0.9,1-1.4c0.5-0.8,0.7-1.6,0.6-2.5c-1.7,1.1-3.3,2.3-4.7,3.6
		c-0.9,0.9-0.9,1.6-1.1,3.2c0,0.3-0.1,0.6-0.1,1C162.8,185,161.6,186.4,159.8,186.4z M168.9,141.8c-1.6,4-7.3,17.8-8.9,22.1
		c-1.9,5.2-3.7,10.9-3.7,14.2c0,3.5,2.1,7.2,3.3,7.3c1.9,0.2,2.4-1.7,2.5-2.8c0-0.3,0.1-0.7,0.1-0.9c0.1-1.6,0.2-2.6,1.3-3.8
		c1.6-1.5,3.4-2.8,5.3-4c0.3-0.1,0.6-0.1,0.8,0.2c0.5,0.6,0.5,2.3-0.4,3.9c-0.3,0.5-0.7,1-1.1,1.5c-1.1,1.4-1.8,2.4-0.9,3.4
		c0.2,0.3,0.6,0.5,1,0.5c1.2,0.1,3-1.2,4.3-2.5c1.8-1.9,3.1-4.3,3.7-6.9c0.6-2.7,0.3-8.5,0.3-8.5v-0.2l12.6-11.9
		C185.4,152.6,172.9,150,168.9,141.8L168.9,141.8z"/>
	<path class="st2" d="M174.3,179.3c-2.1-0.1-3.6-0.6-4.4-1.5c-0.5-0.5-0.7-1.1-0.7-1.8l1,0.1h-0.5h0.5c0,0.4,0.2,0.7,0.5,1
		c0.5,0.5,1.5,1.1,3.7,1.1L174.3,179.3z"/>
	<path class="st2" d="M162.7,178.8c-2.9,0-5.4-1.9-6.2-4.7l1-0.3c0.8,2.7,3.5,4.4,6.3,3.9l0.1,1
		C163.5,178.7,163.1,178.8,162.7,178.8z"/>
	<path class="st2" d="M159.5,182.5c-1.2,0-2.4-0.4-3.3-1.2l0.6-0.8c0.1,0.1,2.9,2.2,5.1-0.1l0.7,0.7
		C161.9,181.9,160.7,182.5,159.5,182.5z"/>
	<path class="st2" d="M175.8,165.9c-4.6,0-8-1.1-10.3-3.4c-1.7-1.7-2.7-4-2.7-6.4h1c0,2.1,0.9,4.2,2.4,5.7c2.3,2.2,5.9,3.3,10.8,3.1
		l0.1,1L175.8,165.9z"/>
	<path class="st0" d="M172.6,135.1c0,0-3.5,0.1-3.7,5.4s4,13.5,12.2,14.8s13.2-3.5,14.7-7.5S178.2,132,172.6,135.1z"/>
	<path class="st2" d="M183.8,156.1c-0.9,0-1.9-0.1-2.8-0.2c-8.5-1.4-12.8-10-12.6-15.4c0.2-5.1,3.4-5.8,4.1-5.8
		c4.2-2.2,14.8,3,20.3,7.6c1.9,1.7,4.1,4,3.5,5.7C194.2,153,189.2,156.2,183.8,156.1z M172.6,135.6c-0.1,0-3,0.2-3.2,4.9
		c-0.2,5,3.9,13,11.8,14.3c8.6,1.4,13-4.1,14.2-7.2c0.3-0.7-0.4-2.3-3.2-4.6c-5.2-4.4-15.6-9.5-19.2-7.5l-0.1,0.1L172.6,135.6z"/>
	<path class="st6" d="M181.8,120.7c0,0-8.6,10.4-10.1,15.7s2.3,15,11.8,16.2s15.3-6.8,15.3-6.8L181.8,120.7z"/>
	<path class="st2" d="M185.4,153.1c-0.7,0-1.3,0-2-0.1c-4.1-0.5-7.8-2.8-10.1-6.3c-2.2-3.3-3-7.4-2.1-10.5
		c1.5-5.3,9.9-15.4,10.2-15.9l0.4-0.5l17.5,25.9l-0.2,0.3C199.1,146.1,193.9,153.1,185.4,153.1z M181.7,121.5
		c-1.8,2.2-8.4,10.5-9.6,15c-0.8,2.8,0,6.7,2,9.7c2.1,3.3,5.6,5.4,9.4,5.8c8.2,1,13.5-4.9,14.6-6.3L181.7,121.5z"/>
	<path class="st0" d="M186.7,112.3c-3.9,3.6-6.2,8.5-6.6,13.7c-0.4,8.5,7.4,18.2,17.6,17.3S195.1,111.9,186.7,112.3z"/>
	<path class="st2" d="M196.3,143.8c-4.2,0-8.1-1.7-11.1-4.6c-3.6-3.4-5.7-8.2-5.6-13.2c0.4-5.4,2.8-10.4,6.8-14l0.1-0.1h0.4
		c6.5,0,14.4,15.8,15,24.5c0.3,4.5-1.2,7.2-4.2,7.4C197.2,143.8,196.8,143.8,196.3,143.8z M186.9,112.8c-3.7,3.5-5.9,8.2-6.3,13.2
		c-0.1,4.7,1.9,9.3,5.3,12.5c3.1,3.1,7.4,4.7,11.7,4.3c3.1-0.3,3.5-3.6,3.3-6.4C200.2,127.3,192.4,112.8,186.9,112.8z"/>
	<path class="st0" d="M191,118.6c0,0-4.6,5.4-2,14.6c1.6,5.5,4.7,10.5,9.1,14.2c0,0,12.5,18,17.8,20.8s14.6,2.9,33.4-4.8
		s26.3-18.9,29.2-24.6s-14.1-32.3-19.9-36.1c-5.7-3.5-12.4-5.1-19.1-4.5c-3.6,0.4-7.2,1.1-10.7,2L191,118.6z"/>
	<path class="st2" d="M224,170.5c-2.9,0.1-5.8-0.5-8.4-1.8c-5.2-2.8-17-19.6-17.9-20.9c-4.4-3.8-7.6-8.8-9.2-14.4
		c-2.6-9.3,1.8-14.8,2-15.1l0.2-0.1l37.9-18.4c3.6-0.9,7.2-1.6,10.8-2c6.8-0.6,13.6,1,19.4,4.6c5.9,3.9,23.2,30.6,20.1,36.8
		c-3.7,7.4-11.9,17.7-29.4,24.9C238.7,168.3,230.4,170.5,224,170.5z M191.3,119c-0.5,0.7-4.1,5.9-1.8,14.1c1.6,5.4,4.7,10.3,8.9,14
		l0.1,0.1c0.1,0.2,12.5,17.9,17.6,20.6c6.2,3.3,17,1.7,33-4.8c17.3-7,25.3-17.1,28.9-24.4c2.6-5.2-13.8-31.6-19.8-35.5
		c-5.6-3.5-12.2-5-18.7-4.4c-3.6,0.4-7.1,1.1-10.6,2L191.3,119z"/>
	<path class="st7" d="M187.6,115.6c0,0-4.5,5.5-1.9,14.6c1.6,5.5,4.7,10.5,9.1,14.2c0,0,12.5,18,17.8,20.8s14.6,2.9,33.4-4.8
		s26.3-18.9,29.2-24.6s-14.1-32.2-19.9-36.1c-5.7-3.5-12.4-5.1-19.1-4.5c-3.6,0.4-7.2,1.1-10.7,2L187.6,115.6z"/>
	<path class="st2" d="M220.7,167.5c-2.9,0.1-5.8-0.5-8.4-1.8c-5.2-2.8-17-19.6-17.9-20.9c-4.4-3.8-7.6-8.8-9.2-14.4
		c-2.6-9.3,1.8-14.8,2-15.1l0.2-0.1l37.9-18.4c3.6-0.9,7.2-1.6,10.8-2c6.8-0.6,13.6,1,19.4,4.6c5.9,3.9,23.2,30.6,20.1,36.8
		c-3.7,7.4-11.9,17.7-29.4,24.9C235.3,165.3,227,167.5,220.7,167.5z M187.9,116c-0.5,0.7-4.1,5.9-1.8,14.1c1.6,5.4,4.6,10.3,8.9,14
		l0.1,0.1c0.1,0.2,12.5,17.9,17.6,20.6c6.2,3.3,17,1.7,33-4.8c17.3-7,25.3-17.1,28.9-24.4c2.6-5.2-13.8-31.6-19.8-35.5
		c-5.6-3.5-12.2-5-18.7-4.4c-3.6,0.4-7.1,1.1-10.6,2L187.9,116z"/>
	<ellipse transform="matrix(0.274 -0.9617 0.9617 0.274 55.4715 268.3779)" class="st0" cx="205.5" cy="97.4" rx="28.5" ry="28.5"/>
	<path class="st2" d="M205.4,126.4c-16,0-29-13-28.9-29.1s13-29,29.1-28.9s29,13,28.9,29.1c0,14.8-11.2,27.2-25.9,28.8
		C207.6,126.4,206.5,126.4,205.4,126.4z M205.5,69.4c-1,0-2.1,0.1-3.1,0.2c-15.3,1.7-26.3,15.5-24.6,30.8
		c1.7,15.3,15.5,26.3,30.8,24.6s26.3-15.5,24.6-30.8C231.7,80.1,219.7,69.4,205.5,69.4z"/>
	<circle class="st8" cx="201.4" cy="90" r="32.2"/>
	<path class="st2" d="M201.3,122.7c-18,0-32.6-14.7-32.6-32.7c0-18,14.7-32.6,32.7-32.6c16.7,0,30.6,12.6,32.4,29.1l0,0
		c1.9,17.9-11.1,34.1-29,36C203.7,122.6,202.5,122.7,201.3,122.7z M201.4,58.4c-1.1,0-2.3,0.1-3.4,0.2c-17.4,1.9-30,17.5-28.1,34.9
		c1.9,17.4,17.5,30,34.9,28.1c17.4-1.9,29.9-17.5,28.1-34.9l0,0C231.1,70.6,217.6,58.4,201.4,58.4z"/>
	<path class="st7" d="M177.7,108.6c-2-17.7,10.7-33.6,28.4-35.5c9.9-1.1,19.7,2.4,26.6,9.5c-4.1-17.3-21.4-28-38.7-24
		s-28,21.4-24,38.7c1.3,5.7,4.2,11,8.3,15.2C178.1,111.2,177.9,109.9,177.7,108.6z"/>
	<path class="st2" d="M179.3,114.2l-1.3-1.3c-12.6-12.9-12.4-33.6,0.5-46.2s33.6-12.4,46.2,0.5c4.2,4.2,7.1,9.5,8.4,15.3l0.4,1.8
		l-1.2-1.3c-12.2-12.5-32.3-12.7-44.8-0.5c-7,6.8-10.4,16.4-9.3,26.1l0,0c0.1,1.3,0.4,2.6,0.7,3.8L179.3,114.2z M201.4,58.4
		c-1.1,0-2.3,0.1-3.4,0.2c-17.4,1.9-29.9,17.5-28.1,34.9c0.7,6.5,3.3,12.5,7.6,17.4c-0.1-0.7-0.2-1.5-0.3-2.2l0,0
		c-1.9-17.9,11-34,28.9-36c9.3-1,18.7,2,25.6,8.4C227.8,67.6,215.4,58.4,201.4,58.4z"/>
	
		<ellipse transform="matrix(0.9942 -0.108 0.108 0.9942 -10.5431 27.9428)" class="st0" cx="252.7" cy="111.3" rx="14.5" ry="16.4"/>
	<path class="st2" d="M253.1,128.1c-7.6,0-14.3-6.5-15.3-15.2c-0.5-4.3,0.6-8.7,3.1-12.3c4.2-6.4,12.8-8.1,19.2-3.9
		c0.7,0.5,1.3,1,2,1.6c6.5,6.2,7.6,16.2,2.5,23.7C262,125.8,257.7,128.1,253.1,128.1L253.1,128.1z M252.4,95.5c-0.5,0-0.9,0-1.4,0.1
		c-3.8,0.5-7.2,2.5-9.3,5.7c-2.3,3.4-3.4,7.5-2.9,11.6c0.9,8.7,8,15.1,15.6,14.3c3.8-0.5,7.2-2.5,9.3-5.7c4.7-7,3.7-16.5-2.4-22.3
		C258.9,96.8,255.7,95.5,252.4,95.5z"/>
	<path class="st7" d="M286,98.4c-6.7-1.5-13.5-2.3-20.4-2.4c-12.6-0.3-20.1,0.9-22.5,7.2s-1.9,16.5,5.9,19.8
		c4.4,1.9,10.7,0.8,15.4-0.3s16-5.8,19.6-11.5S287.7,101,286,98.4z"/>
	<path class="st2" d="M255,124.5c-2.1,0.1-4.2-0.3-6.1-1.1c-8.2-3.5-8.6-14.3-6.2-20.4c2.6-6.7,10.4-7.8,23-7.5
		c6.9,0.1,13.8,0.9,20.5,2.4l0.2,0.1l0.1,0.2c2.1,3.2,1.4,8.1-2,13.4c-3.7,6-15.6,10.7-19.9,11.7C261.5,124,258.2,124.4,255,124.5z
		 M262.2,96.4c-10.1,0-16.4,1.4-18.6,6.9c-2.2,5.8-1.9,15.9,5.7,19.2c4.3,1.8,10.7,0.7,15.1-0.3c4.2-1,15.7-5.6,19.3-11.3
		c3-4.8,3.8-9.3,2.1-12.1c-6.6-1.5-13.4-2.3-20.1-2.3C264.4,96.4,263.3,96.4,262.2,96.4L262.2,96.4z"/>
	<path class="st0" d="M299.3,108c0,0-4.2-7.5-12-9.6s-14.9,3-18.2,8s-1.8,6.6-1.8,6.6s11.4-5.7,17.3-6.8S299.3,108,299.3,108z"/>
	<path class="st2" d="M267.2,113.6l-0.2-0.3c-0.2-0.2-1.6-2.1,1.8-7.2c3.5-5.4,10.9-10.3,18.7-8.2s12.1,9.6,12.3,9.9l0.6,1.1
		l-1.2-0.4c-0.1,0-8.7-2.8-14.4-1.8s-17.1,6.7-17.2,6.7L267.2,113.6z M283.7,98.4c-6,0-11.3,4-14.1,8.2c-2.1,3.3-2.1,5-2,5.7
		c2.2-1.1,11.7-5.7,17-6.6c4.7-0.8,10.9,0.7,13.6,1.4c-1.5-2.1-5.2-6.7-11-8.3C286,98.5,284.8,98.4,283.7,98.4z"/>
	<path class="st7" d="M267,118.1c0,0-1.8-5.3,5.5-12.1s21-4.4,25.4,0.2s3.9,12.6,0.4,16.5c-1.9,2.2-4.3,4-7,5.1
		C291.3,127.8,284.5,116.1,267,118.1z"/>
	<path class="st2" d="M291.1,128.4l-0.2-0.4c-0.1-0.1-6.9-11.4-23.8-9.4h-0.4l-0.1-0.4c-0.1-0.2-1.9-5.7,5.7-12.6s21.3-4.8,26.1,0.2
		c4.6,4.8,4,13.2,0.4,17.2c-2,2.3-4.4,4.1-7.2,5.2L291.1,128.4z M271,117.4c13.1,0,19.3,8,20.6,9.8c2.5-1.1,4.7-2.8,6.4-4.8
		c3.3-3.7,3.9-11.4-0.4-15.8c-4-4.2-17.2-7.1-24.7-0.2c-5.9,5.5-5.7,9.9-5.5,11.2C268.6,117.4,269.8,117.4,271,117.4L271,117.4z"/>
	<path class="st7" d="M260.9,128.4c0,0,2.8-7.4,6.1-10.3s13.3-4.1,20.7-1.5s6.1,11.1,4.7,13.8s-5.6,4.8-5.6,4.8L260.9,128.4z"/>
	<path class="st2" d="M286.9,135.7l-26.7-6.9l0.2-0.5c0.1-0.3,2.9-7.6,6.3-10.5s13.4-4.3,21.2-1.7c2.5,0.8,4.5,2.6,5.4,5
		c1.1,3.1,1,6.5-0.4,9.5c-1.4,2.8-5.7,4.9-5.9,5L286.9,135.7z M261.5,128.1l25.2,6.5c0.8-0.4,4.1-2.3,5.3-4.5
		c1.2-2.7,1.3-5.8,0.4-8.7c-0.8-2.1-2.6-3.7-4.8-4.4c-7.4-2.5-17.1-1.3-20.2,1.4C264.7,120.8,262.2,126.3,261.5,128.1z"/>
	<path class="st7" d="M261.7,127.2c-1.2,0.3-2.2,1-3,1.9c-1.4,1.6-3.1,3-5,4c-3,1.7-6.2,1.8-5.1,5s5.6,2.8,7.8,2.2s3.1-1.3,4.8-2.6
		s3-10.3,3-10.7S261.7,127.2,261.7,127.2z"/>
	<path class="st2" d="M253.4,141.3c-2.1,0-4.4-0.6-5.2-2.9c-1.1-2.9,0.9-3.7,3-4.6c0.8-0.3,1.5-0.7,2.2-1.1c1.6-0.8,3.1-2,4.3-3.3
		l0.6-0.6c0.9-1,2-1.7,3.3-2c2.5-0.5,2.8-0.2,2.9-0.1l0.2,0.2v0.3c0,0,0,0.2-0.1,0.4c-1,6.3-2,9.7-3.1,10.6l-0.4,0.3
		c-1.3,1.2-2.9,2-4.6,2.4C255.5,141.1,254.5,141.3,253.4,141.3z M261.8,127.7c-1.1,0.3-2,0.9-2.8,1.7l-0.6,0.6
		c-1.3,1.4-2.8,2.6-4.6,3.5c-0.8,0.4-1.5,0.8-2.4,1.1c-2.3,1-3.2,1.4-2.5,3.3c1.1,3.1,5.8,2.3,7.2,1.9c1.6-0.4,3-1.1,4.2-2.2
		l0.4-0.3c0.4-0.3,1.5-1.9,2.8-9.9l0,0C263,127.5,262.4,127.6,261.8,127.7L261.8,127.7z"/>
	<path class="st7" d="M269.7,124.2c0,0-4.5-1-6.6,0.7s-2,8.6-1.8,12.8s1.7,7.5,3.3,8c1.3,0.5,2.7,0.4,3.9-0.4
		c0.6-0.6,0-6.7,0.4-11.7S269.7,124.2,269.7,124.2z"/>
	<path class="st2" d="M266.1,146.6c-0.6,0-1.2-0.1-1.8-0.3c-1.9-0.6-3.4-4.2-3.6-8.5c-0.2-5.8-0.2-11.4,2-13.2
		c2.4-1.9,6.9-0.9,7.1-0.8l0.4,0.1l0,0.4c0,0-0.5,4.6-0.9,9.5c-0.2,2.3-0.2,4.9-0.1,7c0,3.4,0,4.5-0.4,4.9
		C267.9,146.3,267,146.6,266.1,146.6z M266.8,124.4c-1.2-0.1-2.4,0.2-3.4,0.9c-2.1,1.7-1.8,9.2-1.6,12.4c0.2,4.2,1.6,7.2,2.9,7.6
		c1.1,0.4,2.4,0.3,3.4-0.3c0.2-1.4,0.2-2.8,0.1-4.2c0-2.1-0.1-4.8,0.1-7.1c0.4-4,0.8-7.8,0.9-9C268.3,124.5,267.6,124.5,266.8,124.4
		z"/>
	<path class="st7" d="M269.7,124.2c-1.2,3.2-2.1,6.4-2.6,9.8c-0.6,5,2.1,11.7,3.1,12.3s4,0.4,4.6-1.1s0.2-6.5,0.3-9.4
		s1.5-9.2,1.3-11.2S271.9,122.5,269.7,124.2z"/>
	<path class="st2" d="M271.8,147.1c-0.6,0-1.2-0.1-1.8-0.4c-1.4-0.8-4-7.9-3.4-12.8c0.5-3.4,1.3-6.7,2.6-9.9l0-0.1l0.1-0.1
		c1.8-1.3,4-1.7,6.1-1c0.8,0.2,1.3,0.9,1.5,1.7c0,2-0.2,3.9-0.6,5.9c-0.3,1.8-0.5,3.6-0.7,5.4c0,0.9,0,2.1,0,3.3
		c0.1,2.7,0.1,5.2-0.4,6.3c-0.4,0.7-1,1.2-1.8,1.4C273,147,272.4,147.1,271.8,147.1z M270.1,124.6c-1.2,3.1-2,6.3-2.5,9.6
		c-0.6,5,2.2,11.3,2.9,11.8c0.9,0.3,1.9,0.3,2.8,0c0.5-0.1,0.9-0.4,1.2-0.9c0.4-0.9,0.3-3.6,0.3-5.9c0-1.2-0.1-2.4,0-3.3
		c0.1-1.9,0.4-3.7,0.7-5.5c0.4-1.8,0.6-3.7,0.6-5.6c0-0.4-0.5-0.7-0.9-0.9C273.4,123.3,271.5,123.5,270.1,124.6L270.1,124.6z"/>
	<path class="st7" d="M276.4,124.6c0,0,2.7-1.3,4.6-0.2s2.4,3.9,2.1,5.4s-1.2,9.9-1.8,12s-2.2,3-3.5,2.9s-2.1-1.7-2.4-3.5
		s-0.4-5.3-0.4-5.3L276.4,124.6z"/>
	<path class="st2" d="M278.1,145.1h-0.3c-1.6-0.2-2.6-2.1-2.8-4s-0.4-5.3-0.4-5.3l1.4-11.5l0.2-0.1c0.1-0.1,2.9-1.4,5-0.2
		s2.6,4.4,2.4,5.9c-0.1,0.4-0.2,1.7-0.4,3.1c-0.3,3-0.8,5.9-1.4,8.9C281.5,143.7,280,145,278.1,145.1z M275.6,135.9
		c0,0,0.2,3.4,0.4,5.2s1,3,1.9,3.1s2.4-0.7,2.9-2.5c0.4-1.3,1-5.8,1.3-8.7c0.2-1.5,0.4-2.7,0.4-3.2c0.2-1.2-0.1-3.9-1.9-4.8
		c-1.4-0.7-3.2-0.1-3.9,0.1L275.6,135.9L275.6,135.9z"/>
	<path class="st7" d="M283.1,127.1c1.6,0.4,3.2,0.9,4.6,1.6c1.1,0.7,1.5,3.1,0.7,6.6s-1.8,5.7-3.4,5.8s-3-1.9-3-3.2
		S283.5,130,283.1,127.1z"/>
	<path class="st2" d="M284.9,141.7c-0.7,0-1.4-0.3-1.9-0.8c-0.8-0.7-1.3-1.8-1.4-2.9c0-0.4,0.1-1.4,0.4-2.8c0.4-2.5,0.9-6.2,0.7-8
		l-0.1-0.7l0.7,0.2c1.7,0.4,3.3,0.9,4.8,1.7c1.3,0.9,1.7,3.5,0.9,7.2c-0.8,4.1-2,6-3.9,6.2L284.9,141.7z M283.7,127.8
		c-0.1,2.5-0.3,5.1-0.8,7.6c-0.2,1.2-0.3,2.3-0.3,2.6c0.1,0.8,0.5,1.6,1.1,2.1c0.4,0.4,0.9,0.6,1.4,0.5c1.3-0.1,2.3-1.9,3-5.4
		c0.8-3.7,0.2-5.6-0.5-6.1C286.3,128.5,285,128.1,283.7,127.8z"/>
	<path class="st0" d="M235.7,129.8c2.2,3.6,1.4,8.2-1.8,10.2s-7.7,0.7-9.9-3s-1.5-8.2,1.8-10.2S233.4,126.2,235.7,129.8z"/>
	<path class="st2" d="M230.6,141.5c-2.9-0.1-5.6-1.6-7.1-4.1c-1.1-1.8-1.6-4-1.2-6.1c0.3-2,1.5-3.8,3.2-4.8
		c3.5-2.1,8.2-0.7,10.6,3.1c1.1,1.8,1.6,4,1.2,6.1c-0.3,2-1.5,3.8-3.2,4.8C233.1,141.1,231.9,141.5,230.6,141.5z M229.1,126.5
		c-1.1,0-2.1,0.3-3.1,0.8c-1.5,0.9-2.5,2.4-2.7,4.2c-0.3,1.9,0.1,3.8,1.1,5.4c2.1,3.4,6.2,4.6,9.2,2.8c1.5-0.9,2.5-2.4,2.7-4.1
		c0.3-1.9-0.1-3.8-1.1-5.4l0,0C234,127.9,231.6,126.5,229.1,126.5L229.1,126.5z"/>
	<path class="st2" d="M218,142.1c1.6,2.6,1,5.8-1.2,7.1s-5.4,0.5-7-2.1s-1-5.8,1.2-7.2S216.4,139.5,218,142.1z"/>
	<path class="st8" d="M232.5,148.2c1.6,2.6,1,5.8-1.2,7.1s-5.4,0.5-7-2.1s-1-5.8,1.2-7.2S230.9,145.6,232.5,148.2z"/>
	<path class="st2" d="M228.9,156.5c-0.5,0-1-0.1-1.6-0.2c-3-1-4.9-4-4.4-7.1c0.4-2.7,3-4.6,5.7-4.2c0.2,0,0.5,0.1,0.7,0.2
		c1.5,0.5,2.7,1.4,3.5,2.7l0,0c1.7,2.8,1.1,6.3-1.4,7.8C230.7,156.2,229.8,156.5,228.9,156.5z M227.8,145.9c-0.7,0-1.4,0.2-2.1,0.6
		c-1,0.6-1.7,1.6-1.8,2.8c-0.4,2.6,1.1,5.2,3.7,6c1.1,0.4,2.3,0.2,3.3-0.4c2-1.3,2.5-4.2,1.1-6.5l0,0c-0.7-1.1-1.7-1.9-2.9-2.3
		C228.7,146,228.3,145.9,227.8,145.9L227.8,145.9z"/>
</g>
</svg>
